<svg width="24" height="50" viewBox="0 0 24 50" fill="none" xmlns="http://www.w3.org/2000/svg">
<path d="M12 22.0334L10.55 20.7203C8.86667 19.1884 7.475 17.8669 6.375 16.7559C5.275 15.6448 4.4 14.6516 3.75 13.7762C3.1 12.884 2.64167 12.0676 2.375 11.3269C2.125 10.5862 2 9.82864 2 9.05427C2 7.47187 2.525 6.15039 3.575 5.08984C4.625 4.0293 5.93333 3.49902 7.5 3.49902C8.36667 3.49902 9.19167 3.6842 9.975 4.05455C10.7583 4.4249 11.4333 4.94676 12 5.62012C12.5667 4.94676 13.2417 4.4249 14.025 4.05455C14.8083 3.6842 15.6333 3.49902 16.5 3.49902C18.0667 3.49902 19.375 4.0293 20.425 5.08984C21.475 6.15039 22 7.47187 22 9.05427C22 9.82864 21.8667 10.5862 21.6 11.3269C21.35 12.0676 20.9 12.884 20.25 13.7762C19.6 14.6516 18.725 15.6448 17.625 16.7559C16.525 17.8669 15.1333 19.1884 13.45 20.7203L12 22.0334ZM12 19.3062C13.6 17.8585 14.9167 16.6212 15.95 15.5943C16.9833 14.5506 17.8 13.65 18.4 12.8924C19 12.1181 19.4167 11.4363 19.65 10.8471C19.8833 10.2411 20 9.64347 20 9.05427C20 8.04423 19.6667 7.20252 19 6.52916C18.3333 5.8558 17.5 5.51911 16.5 5.51911C15.7167 5.51911 14.9917 5.74637 14.325 6.20089C13.6583 6.63858 13.2 7.20252 12.95 7.89272H11.05C10.8 7.20252 10.3417 6.63858 9.675 6.20089C9.00833 5.74637 8.28333 5.51911 7.5 5.51911C6.5 5.51911 5.66667 5.8558 5 6.52916C4.33333 7.20252 4 8.04423 4 9.05427C4 9.64347 4.11667 10.2411 4.35 10.8471C4.58333 11.4363 5 12.1181 5.6 12.8924C6.2 13.65 7.01667 14.5506 8.05 15.5943C9.08333 16.6212 10.4 17.8585 12 19.3062Z" fill="#1D1B20"/>
<path d="M11 42.2356H13V38.1955H17V36.1754H13V32.1352H11V36.1754H7V38.1955H11V42.2356ZM12 47.2859C10.6167 47.2859 9.31667 47.0249 8.1 46.5031C6.88333 45.9644 5.825 45.2405 4.925 44.3315C4.025 43.4224 3.30833 42.3535 2.775 41.1246C2.25833 39.8957 2 38.5826 2 37.1854C2 35.7882 2.25833 34.4751 2.775 33.2462C3.30833 32.0173 4.025 30.9484 4.925 30.0393C5.825 29.1303 6.88333 28.4149 8.1 27.893C9.31667 27.3543 10.6167 27.085 12 27.085C13.3833 27.085 14.6833 27.3543 15.9 27.893C17.1167 28.4149 18.175 29.1303 19.075 30.0393C19.975 30.9484 20.6833 32.0173 21.2 33.2462C21.7333 34.4751 22 35.7882 22 37.1854C22 38.5826 21.7333 39.8957 21.2 41.1246C20.6833 42.3535 19.975 43.4224 19.075 44.3315C18.175 45.2405 17.1167 45.9644 15.9 46.5031C14.6833 47.0249 13.3833 47.2859 12 47.2859ZM12 45.2658C14.2333 45.2658 16.125 44.483 17.675 42.9174C19.225 41.3518 20 39.4412 20 37.1854C20 34.9296 19.225 33.019 17.675 31.4534C16.125 29.8878 14.2333 29.1051 12 29.1051C9.76667 29.1051 7.875 29.8878 6.325 31.4534C4.775 33.019 4 34.9296 4 37.1854C4 39.4412 4.775 41.3518 6.325 42.9174C7.875 44.483 9.76667 45.2658 12 45.2658Z" fill="#1D1B20"/>
</svg>
