<svg width="24" height="25" viewBox="0 0 24 25" fill="none" xmlns="http://www.w3.org/2000/svg">
<path d="M12 21.4767L10.55 20.1637C8.86667 18.6318 7.475 17.3103 6.375 16.1992C5.275 15.0882 4.4 14.095 3.75 13.2196C3.1 12.3274 2.64167 11.5109 2.375 10.7702C2.125 10.0295 2 9.272 2 8.49763C2 6.91523 2.525 5.59375 3.575 4.5332C4.625 3.47266 5.93333 2.94238 7.5 2.94238C8.36667 2.94238 9.19167 3.12756 9.975 3.49791C10.7583 3.86826 11.4333 4.39011 12 5.06348C12.5667 4.39011 13.2417 3.86826 14.025 3.49791C14.8083 3.12756 15.6333 2.94238 16.5 2.94238C18.0667 2.94238 19.375 3.47266 20.425 4.5332C21.475 5.59375 22 6.91523 22 8.49763C22 9.272 21.8667 10.0295 21.6 10.7702C21.35 11.5109 20.9 12.3274 20.25 13.2196C19.6 14.095 18.725 15.0882 17.625 16.1992C16.525 17.3103 15.1333 18.6318 13.45 20.1637L12 21.4767ZM12 18.7496C13.6 17.3019 14.9167 16.0646 15.95 15.0377C16.9833 13.994 17.8 13.0933 18.4 12.3358C19 11.5614 19.4167 10.8797 19.65 10.2905C19.8833 9.68444 20 9.08682 20 8.49763C20 7.48759 19.6667 6.64588 19 5.97252C18.3333 5.29916 17.5 4.96247 16.5 4.96247C15.7167 4.96247 14.9917 5.18973 14.325 5.64425C13.6583 6.08194 13.2 6.64588 12.95 7.33608H11.05C10.8 6.64588 10.3417 6.08194 9.675 5.64425C9.00833 5.18973 8.28333 4.96247 7.5 4.96247C6.5 4.96247 5.66667 5.29916 5 5.97252C4.33333 6.64588 4 7.48759 4 8.49763C4 9.08682 4.11667 9.68444 4.35 10.2905C4.58333 10.8797 5 11.5614 5.6 12.3358C6.2 13.0933 7.01667 13.994 8.05 15.0377C9.08333 16.0646 10.4 17.3019 12 18.7496Z" fill="#1D1B20"/>
</svg>
