<svg width="30" height="29" viewBox="0 0 30 29" fill="none" xmlns="http://www.w3.org/2000/svg">
<path d="M13.792 20.542H16.2087V15.7087H21.042V13.292H16.2087V8.45866H13.792V13.292H8.95866V15.7087H13.792V20.542ZM15.0003 26.5837C13.3288 26.5837 11.758 26.2715 10.2878 25.6472C8.81769 25.0028 7.53887 24.1368 6.45137 23.0493C5.36387 21.9618 4.4979 20.683 3.85345 19.2128C3.22914 17.7427 2.91699 16.1719 2.91699 14.5003C2.91699 12.8288 3.22914 11.258 3.85345 9.78783C4.4979 8.31769 5.36387 7.03887 6.45137 5.95137C7.53887 4.86387 8.81769 4.00796 10.2878 3.38366C11.758 2.73921 13.3288 2.41699 15.0003 2.41699C16.6719 2.41699 18.2427 2.73921 19.7128 3.38366C21.183 4.00796 22.4618 4.86387 23.5493 5.95137C24.6368 7.03887 25.4927 8.31769 26.117 9.78783C26.7614 11.258 27.0837 12.8288 27.0837 14.5003C27.0837 16.1719 26.7614 17.7427 26.117 19.2128C25.4927 20.683 24.6368 21.9618 23.5493 23.0493C22.4618 24.1368 21.183 25.0028 19.7128 25.6472C18.2427 26.2715 16.6719 26.5837 15.0003 26.5837ZM15.0003 24.167C17.6989 24.167 19.9847 23.2305 21.8576 21.3576C23.7305 19.4847 24.667 17.1989 24.667 14.5003C24.667 11.8017 23.7305 9.51595 21.8576 7.64303C19.9847 5.77012 17.6989 4.83366 15.0003 4.83366C12.3017 4.83366 10.016 5.77012 8.14303 7.64303C6.27012 9.51595 5.33366 11.8017 5.33366 14.5003C5.33366 17.1989 6.27012 19.4847 8.14303 21.3576C10.016 23.2305 12.3017 24.167 15.0003 24.167Z" fill="#1D1B20"/>
</svg>
