<svg width="30" height="29" viewBox="0 0 30 29" fill="none" xmlns="http://www.w3.org/2000/svg">
<path d="M15.0003 25.3751L13.2482 23.8042C11.2142 21.9716 9.53262 20.3907 8.20345 19.0615C6.87428 17.7324 5.81699 16.5442 5.03158 15.4969C4.24616 14.4296 3.69234 13.4528 3.37012 12.5667C3.06803 11.6806 2.91699 10.7744 2.91699 9.84798C2.91699 7.95493 3.55137 6.37402 4.82012 5.10527C6.08887 3.83652 7.66977 3.20215 9.56283 3.20215C10.61 3.20215 11.6069 3.42368 12.5535 3.86673C13.5 4.30979 14.3156 4.93409 15.0003 5.73965C15.685 4.93409 16.5007 4.30979 17.4472 3.86673C18.3937 3.42368 19.3906 3.20215 20.4378 3.20215C22.3309 3.20215 23.9118 3.83652 25.1805 5.10527C26.4493 6.37402 27.0837 7.95493 27.0837 9.84798C27.0837 10.7744 26.9225 11.6806 26.6003 12.5667C26.2982 13.4528 25.7545 14.4296 24.9691 15.4969C24.1837 16.5442 23.1264 17.7324 21.7972 19.0615C20.468 20.3907 18.7864 21.9716 16.7524 23.8042L15.0003 25.3751ZM15.0003 22.1126C16.9337 20.3806 18.5246 18.9004 19.7732 17.6719C21.0219 16.4233 22.0087 15.3459 22.7337 14.4397C23.4587 13.5133 23.9621 12.6976 24.2441 11.9928C24.526 11.2678 24.667 10.5528 24.667 9.84798C24.667 8.63965 24.2642 7.63271 23.4587 6.82715C22.6531 6.02159 21.6462 5.61882 20.4378 5.61882C19.4913 5.61882 18.6153 5.89069 17.8097 6.43444C17.0041 6.95805 16.4503 7.63271 16.1482 8.4584H13.8524C13.5503 7.63271 12.9965 6.95805 12.191 6.43444C11.3854 5.89069 10.5094 5.61882 9.56283 5.61882C8.35449 5.61882 7.34755 6.02159 6.54199 6.82715C5.73644 7.63271 5.33366 8.63965 5.33366 9.84798C5.33366 10.5528 5.47463 11.2678 5.75658 11.9928C6.03852 12.6976 6.54199 13.5133 7.26699 14.4397C7.99199 15.3459 8.9788 16.4233 10.2274 17.6719C11.476 18.9004 13.067 20.3806 15.0003 22.1126Z" fill="#1D1B20"/>
</svg>
