<svg width="283" height="48" viewBox="0 0 283 48" fill="none" xmlns="http://www.w3.org/2000/svg">
<path d="M270 41H272V37H276V35H272V31H270V35H266V37H270V41ZM271 46C269.617 46 268.317 45.7417 267.1 45.225C265.883 44.6917 264.825 43.975 263.925 43.075C263.025 42.175 262.308 41.1167 261.775 39.9C261.258 38.6833 261 37.3833 261 36C261 34.6167 261.258 33.3167 261.775 32.1C262.308 30.8833 263.025 29.825 263.925 28.925C264.825 28.025 265.883 27.3167 267.1 26.8C268.317 26.2667 269.617 26 271 26C272.383 26 273.683 26.2667 274.9 26.8C276.117 27.3167 277.175 28.025 278.075 28.925C278.975 29.825 279.683 30.8833 280.2 32.1C280.733 33.3167 281 34.6167 281 36C281 37.3833 280.733 38.6833 280.2 39.9C279.683 41.1167 278.975 42.175 278.075 43.075C277.175 43.975 276.117 44.6917 274.9 45.225C273.683 45.7417 272.383 46 271 46ZM271 44C273.233 44 275.125 43.225 276.675 41.675C278.225 40.125 279 38.2333 279 36C279 33.7667 278.225 31.875 276.675 30.325C275.125 28.775 273.233 28 271 28C268.767 28 266.875 28.775 265.325 30.325C263.775 31.875 263 33.7667 263 36C263 38.2333 263.775 40.125 265.325 41.675C266.875 43.225 268.767 44 271 44Z" fill="#1D1B20"/>
<path d="M271 21.0004L269.55 19.7004C267.867 18.1837 266.475 16.8754 265.375 15.7754C264.275 14.6754 263.4 13.6921 262.75 12.8254C262.1 11.9421 261.642 11.1337 261.375 10.4004C261.125 9.66706 261 8.91706 261 8.15039C261 6.58372 261.525 5.27539 262.575 4.22539C263.625 3.17539 264.933 2.65039 266.5 2.65039C267.367 2.65039 268.192 2.83372 268.975 3.20039C269.758 3.56706 270.433 4.08372 271 4.75039C271.567 4.08372 272.242 3.56706 273.025 3.20039C273.808 2.83372 274.633 2.65039 275.5 2.65039C277.067 2.65039 278.375 3.17539 279.425 4.22539C280.475 5.27539 281 6.58372 281 8.15039C281 8.91706 280.867 9.66706 280.6 10.4004C280.35 11.1337 279.9 11.9421 279.25 12.8254C278.6 13.6921 277.725 14.6754 276.625 15.7754C275.525 16.8754 274.133 18.1837 272.45 19.7004L271 21.0004ZM271 18.3004C272.6 16.8671 273.917 15.6421 274.95 14.6254C275.983 13.5921 276.8 12.7004 277.4 11.9504C278 11.1837 278.417 10.5087 278.65 9.92539C278.883 9.32539 279 8.73373 279 8.15039C279 7.15039 278.667 6.31706 278 5.65039C277.333 4.98373 276.5 4.65039 275.5 4.65039C274.717 4.65039 273.992 4.87539 273.325 5.32539C272.658 5.75872 272.2 6.31706 271.95 7.00039H270.05C269.8 6.31706 269.342 5.75872 268.675 5.32539C268.008 4.87539 267.283 4.65039 266.5 4.65039C265.5 4.65039 264.667 4.98373 264 5.65039C263.333 6.31706 263 7.15039 263 8.15039C263 8.73373 263.117 9.32539 263.35 9.92539C263.583 10.5087 264 11.1837 264.6 11.9504C265.2 12.7004 266.017 13.5921 267.05 14.6254C268.083 15.6421 269.4 16.8671 271 18.3004Z" fill="#1D1B20"/>
<path d="M11 41H13V37H17V35H13V31H11V35H7V37H11V41ZM12 46C10.6167 46 9.31667 45.7417 8.1 45.225C6.88333 44.6917 5.825 43.975 4.925 43.075C4.025 42.175 3.30833 41.1167 2.775 39.9C2.25833 38.6833 2 37.3833 2 36C2 34.6167 2.25833 33.3167 2.775 32.1C3.30833 30.8833 4.025 29.825 4.925 28.925C5.825 28.025 6.88333 27.3167 8.1 26.8C9.31667 26.2667 10.6167 26 12 26C13.3833 26 14.6833 26.2667 15.9 26.8C17.1167 27.3167 18.175 28.025 19.075 28.925C19.975 29.825 20.6833 30.8833 21.2 32.1C21.7333 33.3167 22 34.6167 22 36C22 37.3833 21.7333 38.6833 21.2 39.9C20.6833 41.1167 19.975 42.175 19.075 43.075C18.175 43.975 17.1167 44.6917 15.9 45.225C14.6833 45.7417 13.3833 46 12 46ZM12 44C14.2333 44 16.125 43.225 17.675 41.675C19.225 40.125 20 38.2333 20 36C20 33.7667 19.225 31.875 17.675 30.325C16.125 28.775 14.2333 28 12 28C9.76667 28 7.875 28.775 6.325 30.325C4.775 31.875 4 33.7667 4 36C4 38.2333 4.775 40.125 6.325 41.675C7.875 43.225 9.76667 44 12 44Z" fill="#1D1B20"/>
<path d="M12 21.0004L10.55 19.7004C8.86667 18.1837 7.475 16.8754 6.375 15.7754C5.275 14.6754 4.4 13.6921 3.75 12.8254C3.1 11.9421 2.64167 11.1337 2.375 10.4004C2.125 9.66706 2 8.91706 2 8.15039C2 6.58372 2.525 5.27539 3.575 4.22539C4.625 3.17539 5.93333 2.65039 7.5 2.65039C8.36667 2.65039 9.19167 2.83372 9.975 3.20039C10.7583 3.56706 11.4333 4.08372 12 4.75039C12.5667 4.08372 13.2417 3.56706 14.025 3.20039C14.8083 2.83372 15.6333 2.65039 16.5 2.65039C18.0667 2.65039 19.375 3.17539 20.425 4.22539C21.475 5.27539 22 6.58372 22 8.15039C22 8.91706 21.8667 9.66706 21.6 10.4004C21.35 11.1337 20.9 11.9421 20.25 12.8254C19.6 13.6921 18.725 14.6754 17.625 15.7754C16.525 16.8754 15.1333 18.1837 13.45 19.7004L12 21.0004ZM12 18.3004C13.6 16.8671 14.9167 15.6421 15.95 14.6254C16.9833 13.5921 17.8 12.7004 18.4 11.9504C19 11.1837 19.4167 10.5087 19.65 9.92539C19.8833 9.32539 20 8.73373 20 8.15039C20 7.15039 19.6667 6.31706 19 5.65039C18.3333 4.98373 17.5 4.65039 16.5 4.65039C15.7167 4.65039 14.9917 4.87539 14.325 5.32539C13.6583 5.75872 13.2 6.31706 12.95 7.00039H11.05C10.8 6.31706 10.3417 5.75872 9.675 5.32539C9.00833 4.87539 8.28333 4.65039 7.5 4.65039C6.5 4.65039 5.66667 4.98373 5 5.65039C4.33333 6.31706 4 7.15039 4 8.15039C4 8.73373 4.11667 9.32539 4.35 9.92539C4.58333 10.5087 5 11.1837 5.6 11.9504C6.2 12.7004 7.01667 13.5921 8.05 14.6254C9.08333 15.6421 10.4 16.8671 12 18.3004Z" fill="#1D1B20"/>
</svg>
