<svg width="1482" height="52" viewBox="0 0 1482 52" fill="none" xmlns="http://www.w3.org/2000/svg">
<path d="M18 47.3904V27.2128H30V47.3904M6 21.1595L24 7.03516L42 21.1595V43.3549C42 44.4252 41.5786 45.4516 40.8284 46.2084C40.0783 46.9652 39.0609 47.3904 38 47.3904H10C8.93913 47.3904 7.92172 46.9652 7.17157 46.2084C6.42143 45.4516 6 44.4252 6 43.3549V21.1595Z" stroke="#757575" stroke-width="4" stroke-linecap="round" stroke-linejoin="round"/>
<path d="M1401 43.3734L1392.3 34.5962M1397 23.1958C1397 32.1108 1389.84 39.3379 1381 39.3379C1372.16 39.3379 1365 32.1108 1365 23.1958C1365 14.2808 1372.16 7.05371 1381 7.05371C1389.84 7.05371 1397 14.2808 1397 23.1958Z" stroke="#757575" stroke-width="4" stroke-linecap="round" stroke-linejoin="round"/>
<path d="M1474.17 43.3734V39.3379C1474.17 37.1973 1473.34 35.1444 1471.87 33.6308C1470.4 32.1172 1468.41 31.2669 1466.33 31.2669H1450.67C1448.59 31.2669 1446.6 32.1172 1445.13 33.6308C1443.66 35.1444 1442.83 37.1973 1442.83 39.3379V43.3734M1466.33 15.1248C1466.33 19.5823 1462.83 23.1958 1458.5 23.1958C1454.17 23.1958 1450.67 19.5823 1450.67 15.1248C1450.67 10.6672 1454.17 7.05371 1458.5 7.05371C1462.83 7.05371 1466.33 10.6672 1466.33 15.1248Z" stroke="#757575" stroke-width="4" stroke-linecap="round" stroke-linejoin="round"/>
<path opacity="0.5" d="M1278 3H1286L1291.36 29.78C1291.54 30.7008 1292.04 31.5279 1292.78 32.1166C1293.51 32.7053 1294.42 33.018 1295.36 33H1314.8C1315.74 33.018 1316.65 32.7053 1317.38 32.1166C1318.12 31.5279 1318.62 30.7008 1318.8 29.78L1322 13H1288M1296 43C1296 44.1046 1295.1 45 1294 45C1292.9 45 1292 44.1046 1292 43C1292 41.8954 1292.9 41 1294 41C1295.1 41 1296 41.8954 1296 43ZM1318 43C1318 44.1046 1317.1 45 1316 45C1314.9 45 1314 44.1046 1314 43C1314 41.8954 1314.9 41 1316 41C1317.1 41 1318 41.8954 1318 43Z" stroke="#1E1E1E" stroke-width="4" stroke-linecap="round" stroke-linejoin="round"/>
<path d="M1232.68 9.21975C1231.66 8.19775 1230.45 7.38704 1229.11 6.83391C1227.78 6.28079 1226.35 5.99609 1224.9 5.99609C1223.46 5.99609 1222.02 6.28079 1220.69 6.83391C1219.35 7.38704 1218.14 8.19775 1217.12 9.21975L1215 11.3397L1212.88 9.21975C1210.82 7.15636 1208.02 5.99716 1205.1 5.99716C1202.18 5.99716 1199.38 7.15636 1197.32 9.21975C1195.26 11.2831 1194.1 14.0817 1194.1 16.9997C1194.1 19.9178 1195.26 22.7164 1197.32 24.7797L1215 42.4597L1232.68 24.7797C1233.7 23.7582 1234.51 22.5454 1235.07 21.2105C1235.62 19.8755 1235.9 18.4447 1235.9 16.9997C1235.9 15.5548 1235.62 14.124 1235.07 12.789C1234.51 11.4541 1233.7 10.2413 1232.68 9.21975Z" stroke="#1E1E1E" stroke-width="4" stroke-linecap="round" stroke-linejoin="round"/>
</svg>
