<svg width="1249" height="48" viewBox="0 0 1249 48" fill="none" xmlns="http://www.w3.org/2000/svg">
<path d="M17.625 44V24H29.375V44M5.875 18L23.5 4L41.125 18V40C41.125 41.0609 40.7124 42.0783 39.9778 42.8284C39.2433 43.5786 38.2471 44 37.2083 44H9.79167C8.7529 44 7.75668 43.5786 7.02216 42.8284C6.28765 42.0783 5.875 41.0609 5.875 40V18Z" stroke="#757575" stroke-width="4" stroke-linecap="round" stroke-linejoin="round"/>
<path d="M1173.23 42L1164.71 33.3M1169.31 22C1169.31 30.8366 1162.3 38 1153.64 38C1144.99 38 1137.98 30.8366 1137.98 22C1137.98 13.1634 1144.99 6 1153.64 6C1162.3 6 1169.31 13.1634 1169.31 22Z" stroke="#757575" stroke-width="4" stroke-linecap="round" stroke-linejoin="round"/>
<path d="M1240.7 42V38C1240.7 35.8783 1239.88 33.8434 1238.41 32.3431C1236.94 30.8429 1234.95 30 1232.87 30H1217.2C1215.12 30 1213.13 30.8429 1211.66 32.3431C1210.19 33.8434 1209.37 35.8783 1209.37 38V42M1232.87 14C1232.87 18.4183 1229.36 22 1225.03 22C1220.71 22 1217.2 18.4183 1217.2 14C1217.2 9.58172 1220.71 6 1225.03 6C1229.36 6 1232.87 9.58172 1232.87 14Z" stroke="#757575" stroke-width="4" stroke-linecap="round" stroke-linejoin="round"/>
<g clip-path="url(#clip0_137_1618)">
<path opacity="0.5" d="M1056.96 2H1064.79L1070.04 28.78C1070.22 29.7008 1070.71 30.5279 1071.43 31.1166C1072.14 31.7053 1073.04 32.018 1073.96 32H1092.99C1093.91 32.018 1094.81 31.7053 1095.52 31.1166C1096.24 30.5279 1096.73 29.7008 1096.91 28.78L1100.04 12H1066.75M1074.58 42C1074.58 43.1046 1073.71 44 1072.62 44C1071.54 44 1070.67 43.1046 1070.67 42C1070.67 40.8954 1071.54 40 1072.62 40C1073.71 40 1074.58 40.8954 1074.58 42ZM1096.12 42C1096.12 43.1046 1095.25 44 1094.17 44C1093.08 44 1092.21 43.1046 1092.21 42C1092.21 40.8954 1093.08 40 1094.17 40C1095.25 40 1096.12 40.8954 1096.12 42Z" stroke="#1E1E1E" stroke-width="4" stroke-linecap="round" stroke-linejoin="round"/>
</g>
<path d="M1015.68 9.21975C1014.66 8.19775 1013.45 7.38704 1012.11 6.83391C1010.78 6.28079 1009.35 5.99609 1007.9 5.99609C1006.46 5.99609 1005.02 6.28079 1003.69 6.83391C1002.35 7.38704 1001.14 8.19775 1000.12 9.21975L998 11.3397L995.88 9.21975C993.817 7.15636 991.018 5.99716 988.1 5.99716C985.182 5.99716 982.384 7.15636 980.32 9.21975C978.257 11.2831 977.098 14.0817 977.098 16.9997C977.098 19.9178 978.257 22.7164 980.32 24.7797L998 42.4597L1015.68 24.7797C1016.7 23.7582 1017.51 22.5454 1018.07 21.2105C1018.62 19.8755 1018.9 18.4447 1018.9 16.9997C1018.9 15.5548 1018.62 14.124 1018.07 12.789C1017.51 11.4541 1016.7 10.2413 1015.68 9.21975Z" stroke="#1E1E1E" stroke-width="4" stroke-linecap="round" stroke-linejoin="round"/>
<defs>
<clipPath id="clip0_137_1618">
<rect width="47" height="48" fill="white" transform="translate(1055)"/>
</clipPath>
</defs>
</svg>
