<svg width="1754" height="52" viewBox="0 0 1754 52" fill="none" xmlns="http://www.w3.org/2000/svg">
<path d="M18 47.3904V27.2128H30V47.3904M6 21.1595L24 7.03516L42 21.1595V43.3549C42 44.4252 41.5786 45.4516 40.8284 46.2084C40.0783 46.9652 39.0609 47.3904 38 47.3904H10C8.93913 47.3904 7.92172 46.9652 7.17157 46.2084C6.42143 45.4516 6 44.4252 6 43.3549V21.1595Z" stroke="#757575" stroke-width="4" stroke-linecap="round" stroke-linejoin="round"/>
<path d="M1679 43.3734L1670.3 34.5962M1675 23.1958C1675 32.1108 1667.84 39.3379 1659 39.3379C1650.16 39.3379 1643 32.1108 1643 23.1958C1643 14.2808 1650.16 7.05371 1659 7.05371C1667.84 7.05371 1675 14.2808 1675 23.1958Z" stroke="#757575" stroke-width="4" stroke-linecap="round" stroke-linejoin="round"/>
<path d="M1746.17 43.3734V39.3379C1746.17 37.1973 1745.34 35.1444 1743.87 33.6308C1742.4 32.1172 1740.41 31.2669 1738.33 31.2669H1722.67C1720.59 31.2669 1718.6 32.1172 1717.13 33.6308C1715.66 35.1444 1714.83 37.1973 1714.83 39.3379V43.3734M1738.33 15.1248C1738.33 19.5823 1734.83 23.1958 1730.5 23.1958C1726.17 23.1958 1722.67 19.5823 1722.67 15.1248C1722.67 10.6672 1726.17 7.05371 1730.5 7.05371C1734.83 7.05371 1738.33 10.6672 1738.33 15.1248Z" stroke="#757575" stroke-width="4" stroke-linecap="round" stroke-linejoin="round"/>
<path opacity="0.5" d="M1555 3H1563L1568.36 29.78C1568.54 30.7008 1569.04 31.5279 1569.78 32.1166C1570.51 32.7053 1571.42 33.018 1572.36 33H1591.8C1592.74 33.018 1593.65 32.7053 1594.38 32.1166C1595.12 31.5279 1595.62 30.7008 1595.8 29.78L1599 13H1565M1573 43C1573 44.1046 1572.1 45 1571 45C1569.9 45 1569 44.1046 1569 43C1569 41.8954 1569.9 41 1571 41C1572.1 41 1573 41.8954 1573 43ZM1595 43C1595 44.1046 1594.1 45 1593 45C1591.9 45 1591 44.1046 1591 43C1591 41.8954 1591.9 41 1593 41C1594.1 41 1595 41.8954 1595 43Z" stroke="#1E1E1E" stroke-width="4" stroke-linecap="round" stroke-linejoin="round"/>
<path d="M1504.68 9.21975C1503.66 8.19775 1502.45 7.38704 1501.11 6.83391C1499.78 6.28079 1498.35 5.99609 1496.9 5.99609C1495.46 5.99609 1494.02 6.28079 1492.69 6.83391C1491.35 7.38704 1490.14 8.19775 1489.12 9.21975L1487 11.3397L1484.88 9.21975C1482.82 7.15636 1480.02 5.99716 1477.1 5.99716C1474.18 5.99716 1471.38 7.15636 1469.32 9.21975C1467.26 11.2831 1466.1 14.0817 1466.1 16.9997C1466.1 19.9178 1467.26 22.7164 1469.32 24.7797L1487 42.4597L1504.68 24.7797C1505.7 23.7582 1506.51 22.5454 1507.07 21.2105C1507.62 19.8755 1507.9 18.4447 1507.9 16.9997C1507.9 15.5548 1507.62 14.124 1507.07 12.789C1506.51 11.4541 1505.7 10.2413 1504.68 9.21975Z" stroke="#1E1E1E" stroke-width="4" stroke-linecap="round" stroke-linejoin="round"/>
</svg>
