<svg width="44" height="40" viewBox="0 0 44 40" fill="none" xmlns="http://www.w3.org/2000/svg">
<rect width="42.9822" height="39.5442" transform="translate(0.56543 0.0615234)" fill="white"/>
<path d="M31.9068 10.772H31.9247M13.1021 3.35742H31.0113C35.9568 3.35742 39.9659 7.04586 39.9659 11.5958V28.0725C39.9659 32.6224 35.9568 36.3109 31.0113 36.3109H13.1021C8.15658 36.3109 4.14746 32.6224 4.14746 28.0725V11.5958C4.14746 7.04586 8.15658 3.35742 13.1021 3.35742ZM29.2204 18.7961C29.4414 20.1674 29.1868 21.5679 28.4929 22.7983C27.7989 24.0288 26.7008 25.0267 25.3549 25.6499C24.009 26.2732 22.4837 26.4901 20.9961 26.2699C19.5084 26.0496 18.1342 25.4034 17.0687 24.4232C16.0032 23.443 15.3009 22.1786 15.0615 20.8099C14.8221 19.4413 15.0579 18.038 15.7353 16.7998C16.4128 15.5615 17.4973 14.5513 18.8348 13.9128C20.1723 13.2743 21.6945 13.0401 23.185 13.2435C24.7053 13.4509 26.1129 14.1027 27.1997 15.1025C28.2865 16.1024 28.995 17.3974 29.2204 18.7961Z" stroke="#1E1E1E" stroke-width="3.30132" stroke-linecap="round" stroke-linejoin="round"/>
</svg>
