<svg width="41" height="33" viewBox="0 0 41 33" fill="none" xmlns="http://www.w3.org/2000/svg">
<rect width="40" height="32.3459" transform="translate(0.229492 0.307617)" fill="white"/>
<path d="M29.3958 9.06778H29.4125M11.8958 3.00293H28.5625C33.1649 3.00293 36.8958 6.01996 36.8958 9.74165V23.2191C36.8958 26.9408 33.1649 29.9578 28.5625 29.9578H11.8958C7.29346 29.9578 3.5625 26.9408 3.5625 23.2191V9.74165C3.5625 6.01996 7.29346 3.00293 11.8958 3.00293ZM26.8958 15.6313C27.1015 16.7529 26.8646 17.8985 26.2188 18.905C25.5729 19.9115 24.5511 20.7277 23.2985 21.2375C22.046 21.7473 20.6266 21.9247 19.2421 21.7446C17.8577 21.5644 16.5788 21.0359 15.5872 20.2341C14.5957 19.4323 13.9421 18.398 13.7193 17.2785C13.4965 16.159 13.7159 15.0112 14.3464 13.9983C14.9768 12.9855 15.9861 12.1592 17.2308 11.6369C18.4755 11.1147 19.8921 10.9231 21.2792 11.0894C22.694 11.2591 24.0039 11.7922 25.0153 12.6101C26.0267 13.4279 26.686 14.4872 26.8958 15.6313Z" stroke="#1E1E1E" stroke-width="3.30132" stroke-linecap="round" stroke-linejoin="round"/>
</svg>
