<svg width="41" height="36" viewBox="0 0 41 36" fill="none" xmlns="http://www.w3.org/2000/svg">
<rect width="40" height="35.3373" transform="translate(0.229492 0.438477)" fill="white"/>
<path d="M29.3958 10.0095H29.4125M11.8958 3.38379H28.5625C33.1649 3.38379 36.8958 6.67984 36.8958 10.7457V25.4696C36.8958 29.5355 33.1649 32.8316 28.5625 32.8316H11.8958C7.29346 32.8316 3.5625 29.5355 3.5625 25.4696V10.7457C3.5625 6.67984 7.29346 3.38379 11.8958 3.38379ZM26.8958 17.1801C27.1015 18.4055 26.8646 19.657 26.2188 20.7565C25.5729 21.8561 24.5511 22.7478 23.2985 23.3047C22.046 23.8617 20.6266 24.0555 19.2421 23.8587C17.8577 23.6619 16.5788 23.0845 15.5872 22.2085C14.5957 21.3326 13.9421 20.2027 13.7193 18.9796C13.4965 17.7566 13.7159 16.5026 14.3464 15.3961C14.9768 14.2896 15.9861 13.3868 17.2308 12.8163C18.4755 12.2457 19.8921 12.0364 21.2792 12.2181C22.694 12.4035 24.0039 12.9859 25.0153 13.8794C26.0267 14.7729 26.686 15.9301 26.8958 17.1801Z" stroke="#1E1E1E" stroke-width="3.30132" stroke-linecap="round" stroke-linejoin="round"/>
</svg>
