<svg width="52" height="41" viewBox="0 0 52 41" fill="none" xmlns="http://www.w3.org/2000/svg">
<rect width="50.3056" height="40.5724" transform="translate(0.716797 0.169922)" fill="white"/>
<path d="M37.3982 11.1581H37.4191M15.3895 3.55078H36.3502C42.1383 3.55078 46.8305 7.33513 46.8305 12.0034V28.9085C46.8305 33.5768 42.1383 37.3611 36.3502 37.3611H15.3895C9.60138 37.3611 4.90918 33.5768 4.90918 28.9085V12.0034C4.90918 7.33513 9.60138 3.55078 15.3895 3.55078ZM34.2541 19.3909C34.5128 20.7978 34.2148 22.2347 33.4026 23.4972C32.5904 24.7597 31.3052 25.7835 29.73 26.4229C28.1548 27.0624 26.3696 27.2849 24.6285 27.059C22.8874 26.833 21.2789 26.17 20.0319 25.1643C18.785 24.1586 17.9629 22.8613 17.6827 21.4571C17.4026 20.0528 17.6785 18.6131 18.4714 17.3426C19.2643 16.0722 20.5336 15.0357 22.099 14.3806C23.6643 13.7256 25.4459 13.4852 27.1903 13.6939C28.9697 13.9067 30.6171 14.5754 31.8891 15.6013C33.1611 16.6272 33.9902 17.9558 34.2541 19.3909Z" stroke="#1E1E1E" stroke-width="3.30132" stroke-linecap="round" stroke-linejoin="round"/>
</svg>
