<svg width="37" height="33" viewBox="0 0 37 33" fill="none" xmlns="http://www.w3.org/2000/svg">
<rect width="36.1389" height="32.2523" transform="translate(0.802734 0.115234)" fill="white"/>
<path d="M27.1542 8.85004H27.1692M11.3434 2.80273H26.4013C30.5594 2.80273 33.9302 5.81104 33.9302 9.52197V22.9604C33.9302 26.6714 30.5594 29.6797 26.4013 29.6797H11.3434C7.18527 29.6797 3.81445 26.6714 3.81445 22.9604V9.52197C3.81445 5.81104 7.18527 2.80273 11.3434 2.80273ZM24.8955 15.3946C25.0813 16.513 24.8672 17.6552 24.2838 18.6588C23.7003 19.6624 22.777 20.4762 21.6454 20.9845C20.5138 21.4929 19.2314 21.6698 17.9806 21.4902C16.7298 21.3106 15.5743 20.7835 14.6785 19.984C13.7826 19.1845 13.1921 18.1533 12.9908 17.037C12.7896 15.9208 12.9878 14.7763 13.5574 13.7663C14.127 12.7564 15.0389 11.9325 16.1634 11.4117C17.2879 10.891 18.5678 10.7 19.821 10.8658C21.0993 11.035 22.2827 11.5666 23.1965 12.3821C24.1103 13.1976 24.7059 14.2538 24.8955 15.3946Z" stroke="#1E1E1E" stroke-width="3.30132" stroke-linecap="round" stroke-linejoin="round"/>
</svg>
