<svg width="51" height="41" viewBox="0 0 51 41" fill="none" xmlns="http://www.w3.org/2000/svg">
<rect width="50.3056" height="40.5724" transform="translate(0.411133 0.169922)" fill="white"/>
<path d="M33.9484 13.6939C37.2839 13.6939 40.4827 14.7625 42.8413 16.6647C45.1998 18.5669 46.5248 21.1469 46.5248 23.837V35.6706H38.1406V23.837C38.1406 22.9403 37.6989 22.0803 36.9127 21.4462C36.1265 20.8122 35.0602 20.4559 33.9484 20.4559C32.8366 20.4559 31.7703 20.8122 30.9841 21.4462C30.198 22.0803 29.7563 22.9403 29.7563 23.837V35.6706H21.372V23.837C21.372 21.1469 22.697 18.5669 25.0556 16.6647C27.4141 14.7625 30.613 13.6939 33.9484 13.6939Z" stroke="#1E1E1E" stroke-width="3.30132" stroke-linecap="round" stroke-linejoin="round"/>
<path d="M12.9878 15.3844H4.60352V35.6706H12.9878V15.3844Z" stroke="#1E1E1E" stroke-width="3.30132" stroke-linecap="round" stroke-linejoin="round"/>
<path d="M8.79565 10.3128C11.1109 10.3128 12.9878 8.79911 12.9878 6.93181C12.9878 5.06452 11.1109 3.55078 8.79565 3.55078C6.4804 3.55078 4.60352 5.06452 4.60352 6.93181C4.60352 8.79911 6.4804 10.3128 8.79565 10.3128Z" stroke="#1E1E1E" stroke-width="3.30132" stroke-linecap="round" stroke-linejoin="round"/>
</svg>
