<svg width="37" height="33" viewBox="0 0 37 33" fill="none" xmlns="http://www.w3.org/2000/svg">
<rect width="36.1389" height="32.2523" transform="translate(0.55957 0.115234)" fill="white"/>
<path d="M24.6523 10.8658C27.0485 10.8658 29.3465 11.7153 31.0408 13.2274C32.7352 14.7396 33.687 16.7904 33.687 18.9289V28.3358H27.6639V18.9289C27.6639 18.2161 27.3466 17.5325 26.7818 17.0284C26.217 16.5244 25.451 16.2412 24.6523 16.2412C23.8536 16.2412 23.0876 16.5244 22.5228 17.0284C21.958 17.5325 21.6407 18.2161 21.6407 18.9289V28.3358H15.6176V18.9289C15.6176 16.7904 16.5695 14.7396 18.2638 13.2274C19.9581 11.7153 22.2561 10.8658 24.6523 10.8658Z" stroke="#1E1E1E" stroke-width="3.30132" stroke-linecap="round" stroke-linejoin="round"/>
<path d="M9.59444 12.2097H3.57129V28.3358H9.59444V12.2097Z" stroke="#1E1E1E" stroke-width="3.30132" stroke-linecap="round" stroke-linejoin="round"/>
<path d="M6.58286 8.17812C8.24611 8.17812 9.59444 6.9748 9.59444 5.49043C9.59444 4.00606 8.24611 2.80273 6.58286 2.80273C4.91962 2.80273 3.57129 4.00606 3.57129 5.49043C3.57129 6.9748 4.91962 8.17812 6.58286 8.17812Z" stroke="#1E1E1E" stroke-width="3.30132" stroke-linecap="round" stroke-linejoin="round"/>
</svg>
