<svg width="41" height="36" viewBox="0 0 41 36" fill="none" xmlns="http://www.w3.org/2000/svg">
<rect width="40" height="35.3373" transform="translate(0.230469 0.438477)" fill="white"/>
<path d="M26.8968 12.2181C29.549 12.2181 32.0925 13.1489 33.9679 14.8056C35.8432 16.4624 36.8968 18.7094 36.8968 21.0525V31.3592H30.2301V21.0525C30.2301 20.2715 29.879 19.5224 29.2538 18.9702C28.6287 18.4179 27.7809 18.1077 26.8968 18.1077C26.0128 18.1077 25.1649 18.4179 24.5398 18.9702C23.9147 19.5224 23.5635 20.2715 23.5635 21.0525V31.3592H16.8968V21.0525C16.8968 18.7094 17.9504 16.4624 19.8257 14.8056C21.7011 13.1489 24.2446 12.2181 26.8968 12.2181Z" stroke="#1E1E1E" stroke-width="3.30132" stroke-linecap="round" stroke-linejoin="round"/>
<path d="M10.2301 13.6905H3.56348V31.3592H10.2301V13.6905Z" stroke="#1E1E1E" stroke-width="3.30132" stroke-linecap="round" stroke-linejoin="round"/>
<path d="M6.89681 9.27334C8.73776 9.27334 10.2301 7.95492 10.2301 6.32857C10.2301 4.70221 8.73776 3.38379 6.89681 3.38379C5.05586 3.38379 3.56348 4.70221 3.56348 6.32857C3.56348 7.95492 5.05586 9.27334 6.89681 9.27334Z" stroke="#1E1E1E" stroke-width="3.30132" stroke-linecap="round" stroke-linejoin="round"/>
</svg>
