<svg width="44" height="40" viewBox="0 0 44 40" fill="none" xmlns="http://www.w3.org/2000/svg">
<rect width="42.9822" height="39.5442" transform="translate(0.65625 0.0615234)" fill="white"/>
<path d="M29.3112 13.2435C32.1611 13.2435 34.8943 14.285 36.9095 16.139C38.9247 17.993 40.0568 20.5076 40.0568 23.1295V34.6632H32.8931V23.1295C32.8931 22.2555 32.5157 21.4173 31.844 20.7993C31.1722 20.1813 30.2612 19.8342 29.3112 19.8342C28.3613 19.8342 27.4502 20.1813 26.7785 20.7993C26.1067 21.4173 25.7294 22.2555 25.7294 23.1295V34.6632H18.5657V23.1295C18.5657 20.5076 19.6978 17.993 21.713 16.139C23.7282 14.285 26.4613 13.2435 29.3112 13.2435Z" stroke="#1E1E1E" stroke-width="3.30132" stroke-linecap="round" stroke-linejoin="round"/>
<path d="M11.402 14.8911H4.23828V34.6632H11.402V14.8911Z" stroke="#1E1E1E" stroke-width="3.30132" stroke-linecap="round" stroke-linejoin="round"/>
<path d="M7.82013 9.94811C9.79833 9.94811 11.402 8.47274 11.402 6.65277C11.402 4.8328 9.79833 3.35742 7.82013 3.35742C5.84193 3.35742 4.23828 4.8328 4.23828 6.65277C4.23828 8.47274 5.84193 9.94811 7.82013 9.94811Z" stroke="#1E1E1E" stroke-width="3.30132" stroke-linecap="round" stroke-linejoin="round"/>
</svg>
