<svg width="41" height="33" viewBox="0 0 41 33" fill="none" xmlns="http://www.w3.org/2000/svg">
<rect width="40" height="32.3459" transform="translate(0.230469 0.307617)" fill="white"/>
<path d="M26.8968 11.0894C29.549 11.0894 32.0925 11.9414 33.9679 13.4579C35.8432 14.9744 36.8968 17.0312 36.8968 19.1759V28.6101H30.2301V19.1759C30.2301 18.461 29.879 17.7754 29.2538 17.2699C28.6287 16.7644 27.7809 16.4804 26.8968 16.4804C26.0128 16.4804 25.1649 16.7644 24.5398 17.2699C23.9147 17.7754 23.5635 18.461 23.5635 19.1759V28.6101H16.8968V19.1759C16.8968 17.0312 17.9504 14.9744 19.8257 13.4579C21.7011 11.9414 24.2446 11.0894 26.8968 11.0894Z" stroke="#1E1E1E" stroke-width="3.30132" stroke-linecap="round" stroke-linejoin="round"/>
<path d="M10.2301 12.4371H3.56348V28.6101H10.2301V12.4371Z" stroke="#1E1E1E" stroke-width="3.30132" stroke-linecap="round" stroke-linejoin="round"/>
<path d="M6.89681 8.39391C8.73776 8.39391 10.2301 7.18709 10.2301 5.69842C10.2301 4.20974 8.73776 3.00293 6.89681 3.00293C5.05586 3.00293 3.56348 4.20974 3.56348 5.69842C3.56348 7.18709 5.05586 8.39391 6.89681 8.39391Z" stroke="#1E1E1E" stroke-width="3.30132" stroke-linecap="round" stroke-linejoin="round"/>
</svg>
