<svg width="40" height="40" viewBox="0 0 40 40" fill="none" xmlns="http://www.w3.org/2000/svg">
<path d="M30 36.6663C28.6111 36.6663 27.4306 36.1802 26.4583 35.208C25.4861 34.2358 25 33.0552 25 31.6663C25 31.4719 25.0139 31.2705 25.0417 31.0622C25.0694 30.8538 25.1111 30.6663 25.1667 30.4997L13.4167 23.6663C12.9444 24.083 12.4167 24.4094 11.8333 24.6455C11.25 24.8816 10.6389 24.9997 10 24.9997C8.61111 24.9997 7.43056 24.5136 6.45833 23.5413C5.48611 22.5691 5 21.3886 5 19.9997C5 18.6108 5.48611 17.4302 6.45833 16.458C7.43056 15.4858 8.61111 14.9997 10 14.9997C10.6389 14.9997 11.25 15.1177 11.8333 15.3538C12.4167 15.59 12.9444 15.9163 13.4167 16.333L25.1667 9.49967C25.1111 9.33301 25.0694 9.14551 25.0417 8.93717C25.0139 8.72884 25 8.52745 25 8.33301C25 6.94412 25.4861 5.76356 26.4583 4.79134C27.4306 3.81912 28.6111 3.33301 30 3.33301C31.3889 3.33301 32.5694 3.81912 33.5417 4.79134C34.5139 5.76356 35 6.94412 35 8.33301C35 9.7219 34.5139 10.9025 33.5417 11.8747C32.5694 12.8469 31.3889 13.333 30 13.333C29.3611 13.333 28.75 13.215 28.1667 12.9788C27.5833 12.7427 27.0556 12.4163 26.5833 11.9997L14.8333 18.833C14.8889 18.9997 14.9306 19.1872 14.9583 19.3955C14.9861 19.6038 15 19.8052 15 19.9997C15 20.1941 14.9861 20.3955 14.9583 20.6038C14.9306 20.8122 14.8889 20.9997 14.8333 21.1663L26.5833 27.9997C27.0556 27.583 27.5833 27.2566 28.1667 27.0205C28.75 26.7844 29.3611 26.6663 30 26.6663C31.3889 26.6663 32.5694 27.1525 33.5417 28.1247C34.5139 29.0969 35 30.2775 35 31.6663C35 33.0552 34.5139 34.2358 33.5417 35.208C32.5694 36.1802 31.3889 36.6663 30 36.6663ZM30 9.99967C30.4722 9.99967 30.8681 9.83995 31.1875 9.52051C31.5069 9.20106 31.6667 8.80523 31.6667 8.33301C31.6667 7.86079 31.5069 7.46495 31.1875 7.14551C30.8681 6.82606 30.4722 6.66634 30 6.66634C29.5278 6.66634 29.1319 6.82606 28.8125 7.14551C28.4931 7.46495 28.3333 7.86079 28.3333 8.33301C28.3333 8.80523 28.4931 9.20106 28.8125 9.52051C29.1319 9.83995 29.5278 9.99967 30 9.99967ZM10 21.6663C10.4722 21.6663 10.8681 21.5066 11.1875 21.1872C11.5069 20.8677 11.6667 20.4719 11.6667 19.9997C11.6667 19.5275 11.5069 19.1316 11.1875 18.8122C10.8681 18.4927 10.4722 18.333 10 18.333C9.52778 18.333 9.13194 18.4927 8.8125 18.8122C8.49306 19.1316 8.33333 19.5275 8.33333 19.9997C8.33333 20.4719 8.49306 20.8677 8.8125 21.1872C9.13194 21.5066 9.52778 21.6663 10 21.6663ZM30 33.333C30.4722 33.333 30.8681 33.1733 31.1875 32.8538C31.5069 32.5344 31.6667 32.1386 31.6667 31.6663C31.6667 31.1941 31.5069 30.7983 31.1875 30.4788C30.8681 30.1594 30.4722 29.9997 30 29.9997C29.5278 29.9997 29.1319 30.1594 28.8125 30.4788C28.4931 30.7983 28.3333 31.1941 28.3333 31.6663C28.3333 32.1386 28.4931 32.5344 28.8125 32.8538C29.1319 33.1733 29.5278 33.333 30 33.333Z" fill="#1D1B20"/>
</svg>
