<svg width="30" height="30" viewBox="0 0 30 30" fill="none" xmlns="http://www.w3.org/2000/svg">
<path d="M3.75 7.5H6.25M6.25 7.5H26.25M6.25 7.5V25C6.25 25.663 6.51339 26.2989 6.98223 26.7678C7.45107 27.2366 8.08696 27.5 8.75 27.5H21.25C21.913 27.5 22.5489 27.2366 23.0178 26.7678C23.4866 26.2989 23.75 25.663 23.75 25V7.5M10 7.5V5C10 4.33696 10.2634 3.70107 10.7322 3.23223C11.2011 2.76339 11.837 2.5 12.5 2.5H17.5C18.163 2.5 18.7989 2.76339 19.2678 3.23223C19.7366 3.70107 20 4.33696 20 5V7.5M12.5 13.75V21.25M17.5 13.75V21.25" stroke="#1E1E1E" stroke-width="4" stroke-linecap="round" stroke-linejoin="round"/>
</svg>
