<svg width="24" height="25" viewBox="0 0 24 25" fill="none" xmlns="http://www.w3.org/2000/svg">
<path d="M12 21.2111L10.55 19.898C8.86667 18.3661 7.475 17.0447 6.375 15.9336C5.275 14.8226 4.4 13.8293 3.75 12.954C3.1 12.0618 2.64167 11.2453 2.375 10.5046C2.125 9.76391 2 9.00637 2 8.23201C2 6.6496 2.525 5.32813 3.575 4.26758C4.625 3.20703 5.93333 2.67676 7.5 2.67676C8.36667 2.67676 9.19167 2.86193 9.975 3.23228C10.7583 3.60263 11.4333 4.12449 12 4.79785C12.5667 4.12449 13.2417 3.60263 14.025 3.23228C14.8083 2.86193 15.6333 2.67676 16.5 2.67676C18.0667 2.67676 19.375 3.20703 20.425 4.26758C21.475 5.32813 22 6.6496 22 8.23201C22 9.00637 21.8667 9.76391 21.6 10.5046C21.35 11.2453 20.9 12.0618 20.25 12.954C19.6 13.8293 18.725 14.8226 17.625 15.9336C16.525 17.0447 15.1333 18.3661 13.45 19.898L12 21.2111ZM12 18.484C13.6 17.0362 14.9167 15.7989 15.95 14.772C16.9833 13.7283 17.8 12.8277 18.4 12.0702C19 11.2958 19.4167 10.614 19.65 10.0248C19.8833 9.41881 20 8.8212 20 8.23201C20 7.22196 19.6667 6.38026 19 5.70689C18.3333 5.03353 17.5 4.69685 16.5 4.69685C15.7167 4.69685 14.9917 4.92411 14.325 5.37863C13.6583 5.81632 13.2 6.38026 12.95 7.07045H11.05C10.8 6.38026 10.3417 5.81632 9.675 5.37863C9.00833 4.92411 8.28333 4.69685 7.5 4.69685C6.5 4.69685 5.66667 5.03353 5 5.70689C4.33333 6.38026 4 7.22196 4 8.23201C4 8.8212 4.11667 9.41881 4.35 10.0248C4.58333 10.614 5 11.2958 5.6 12.0702C6.2 12.8277 7.01667 13.7283 8.05 14.772C9.08333 15.7989 10.4 17.0362 12 18.484Z" fill="#1D1B20"/>
</svg>
