<svg width="44" height="40" viewBox="0 0 44 40" fill="none" xmlns="http://www.w3.org/2000/svg">
<g clip-path="url(#clip0_169_1418)">
<rect width="42.9822" height="39.5442" transform="translate(0.958984 0.0615234)" fill="white"/>
<path d="M42.1503 5.00387C40.4353 6.11684 38.5364 6.96808 36.5268 7.52481C35.4482 6.38382 34.0148 5.57511 32.4203 5.20806C30.8258 4.84102 29.1473 4.93335 27.6118 5.47256C26.0762 6.01177 24.7577 6.97186 23.8345 8.22296C22.9114 9.47406 22.4281 10.9558 22.4502 12.4678V14.1155C19.3029 14.1906 16.1842 13.5484 13.372 12.2461C10.5598 10.9439 8.14125 9.02195 6.33185 6.65155C6.33185 6.65155 -0.831848 21.4806 15.2865 28.0713C11.5981 30.3747 7.20431 31.5297 2.75 31.3666C18.8683 39.605 38.5685 31.3666 38.5685 12.4184C38.5668 11.9594 38.5189 11.5016 38.4252 11.0508C40.253 9.39244 41.5429 7.29861 42.1503 5.00387Z" stroke="#1E1E1E" stroke-width="3.30132" stroke-linecap="round" stroke-linejoin="round"/>
</g>
<defs>
<clipPath id="clip0_169_1418">
<rect width="42.9822" height="39.5442" fill="white" transform="translate(0.958984 0.0615234)"/>
</clipPath>
</defs>
</svg>
