<svg width="51" height="41" viewBox="0 0 51 41" fill="none" xmlns="http://www.w3.org/2000/svg">
<g clip-path="url(#clip0_144_1329)">
<rect width="50.3056" height="40.5724" transform="translate(0.178711 0.169922)" fill="white"/>
<path d="M48.3888 5.24161C46.3816 6.38351 44.1592 7.25689 41.8072 7.8281C40.5448 6.65743 38.8671 5.8277 37.001 5.45111C35.1348 5.07452 33.1703 5.16925 31.3731 5.72248C29.5759 6.27572 28.0328 7.26076 26.9523 8.5444C25.8719 9.82803 25.3063 11.3483 25.3321 12.8996V14.5902C21.6485 14.6672 17.9985 14.0083 14.7072 12.6722C11.4158 11.3361 8.58521 9.36416 6.46752 6.93212C6.46752 6.93212 -1.91674 22.1468 16.9478 28.9088C12.6311 31.2721 7.48863 32.4571 2.27539 32.2899C21.14 40.7424 44.1967 32.2899 44.1967 12.8489C44.1948 12.378 44.1386 11.9083 44.029 11.4458C46.1683 9.74429 47.6779 7.59601 48.3888 5.24161Z" stroke="#1E1E1E" stroke-width="3.30132" stroke-linecap="round" stroke-linejoin="round"/>
</g>
<defs>
<clipPath id="clip0_144_1329">
<rect width="50.3056" height="40.5724" fill="white" transform="translate(0.178711 0.169922)"/>
</clipPath>
</defs>
</svg>
