<svg width="37" height="33" viewBox="0 0 37 33" fill="none" xmlns="http://www.w3.org/2000/svg">
<g clip-path="url(#clip0_144_1424)">
<rect width="36.1389" height="32.2523" transform="translate(0.639648 0.115234)" fill="white"/>
<path d="M35.2728 4.14633C33.8309 5.05406 32.2343 5.74834 30.5446 6.20241C29.6378 5.27181 28.4325 4.61223 27.0919 4.31286C25.7513 4.0135 24.34 4.0888 23.049 4.52859C21.7579 4.96837 20.6493 5.75142 19.8731 6.77182C19.0969 7.79223 18.6906 9.00075 18.7092 10.234V11.5778C16.0629 11.639 13.4408 11.1153 11.0763 10.0531C8.71186 8.991 6.6784 7.42348 5.15708 5.49017C5.15708 5.49017 -0.866066 17.5848 12.686 22.9602C9.58489 24.8388 5.89064 25.7808 2.14551 25.6479C15.6976 32.3671 32.2612 25.6479 32.2612 10.1936C32.2599 9.81931 32.2195 9.44591 32.1408 9.07824C33.6776 7.72565 34.7621 6.01792 35.2728 4.14633Z" stroke="#1E1E1E" stroke-width="3.30132" stroke-linecap="round" stroke-linejoin="round"/>
</g>
<defs>
<clipPath id="clip0_144_1424">
<rect width="36.1389" height="32.2523" fill="white" transform="translate(0.639648 0.115234)"/>
</clipPath>
</defs>
</svg>
