<svg width="41" height="36" viewBox="0 0 41 36" fill="none" xmlns="http://www.w3.org/2000/svg">
<g clip-path="url(#clip0_144_1386)">
<rect width="40" height="35.3373" transform="translate(0.229492 0.438477)" fill="white"/>
<path d="M38.5631 4.85563C36.9671 5.85019 35.2 6.61087 33.3298 7.10838C32.326 6.08877 30.992 5.36609 29.5082 5.03809C28.0244 4.7101 26.4623 4.7926 25.0333 5.27445C23.6043 5.7563 22.3772 6.61425 21.5181 7.73226C20.659 8.85026 20.2093 10.1744 20.2298 11.5255V12.9979C17.3009 13.065 14.3986 12.4912 11.7815 11.3274C9.16439 10.1637 6.91368 8.44625 5.22982 6.32802C5.22982 6.32802 -1.43685 19.5795 13.5631 25.4691C10.1307 27.5274 6.04175 28.5595 1.89648 28.4138C16.8965 35.7758 35.2298 28.4138 35.2298 11.4814C35.2283 11.0712 35.1836 10.6621 35.0965 10.2593C36.7975 8.77732 37.9979 6.90624 38.5631 4.85563Z" stroke="#1E1E1E" stroke-width="3.30132" stroke-linecap="round" stroke-linejoin="round"/>
</g>
<defs>
<clipPath id="clip0_144_1386">
<rect width="40" height="35.3373" fill="white" transform="translate(0.229492 0.438477)"/>
</clipPath>
</defs>
</svg>
