<svg width="41" height="33" viewBox="0 0 41 33" fill="none" xmlns="http://www.w3.org/2000/svg">
<g clip-path="url(#clip0_165_1308)">
<rect width="40" height="32.3459" transform="translate(0.229492 0.307617)" fill="white"/>
<path d="M38.5631 4.35144C36.9671 5.26181 35.2 5.9581 33.3298 6.41349C32.326 5.48019 30.992 4.8187 29.5082 4.51846C28.0244 4.21823 26.4623 4.29375 25.0333 4.73481C23.6043 5.17587 22.3772 5.96119 21.5181 6.98455C20.659 8.00792 20.2093 9.21995 20.2298 10.4567V11.8045C17.3009 11.8659 14.3986 11.3406 11.7815 10.2754C9.16439 9.21017 6.91368 7.6381 5.22982 5.69919C5.22982 5.69919 -1.43685 17.8289 13.5631 23.2199C10.1307 25.104 6.04175 26.0487 1.89648 25.9153C16.8965 32.6541 35.2298 25.9153 35.2298 10.4163C35.2283 10.0409 35.1836 9.6664 35.0965 9.29766C36.7975 7.94115 37.9979 6.22846 38.5631 4.35144Z" stroke="#1E1E1E" stroke-width="3.30132" stroke-linecap="round" stroke-linejoin="round"/>
</g>
<defs>
<clipPath id="clip0_165_1308">
<rect width="40" height="32.3459" fill="white" transform="translate(0.229492 0.307617)"/>
</clipPath>
</defs>
</svg>
